<?xml version="1.0" encoding="UTF-8" standalone="no"?>
<svg
   version="1.0"
   width="300.000000pt"
   height="300.000000pt"
   viewBox="0 0 300.000000 300.000000"
   preserveAspectRatio="xMidYMid meet"
   id="svg29"
   sodipodi:docname="appiconfg.svg"
   inkscape:version="1.3.2 (091e20e, 2023-11-25, custom)"
   xmlns:inkscape="http://www.inkscape.org/namespaces/inkscape"
   xmlns:sodipodi="http://sodipodi.sourceforge.net/DTD/sodipodi-0.dtd"
   xmlns="http://www.w3.org/2000/svg"
   xmlns:svg="http://www.w3.org/2000/svg">
  <defs
     id="defs29" />
  <sodipodi:namedview
     id="namedview29"
     pagecolor="#ffffff"
     bordercolor="#000000"
     borderopacity="0.25"
     inkscape:showpageshadow="2"
     inkscape:pageopacity="0.0"
     inkscape:pagecheckerboard="0"
     inkscape:deskcolor="#d1d1d1"
     inkscape:document-units="pt"
     inkscape:zoom="3.0425"
     inkscape:cx="199.83566"
     inkscape:cy="200"
     inkscape:window-width="2880"
     inkscape:window-height="1514"
     inkscape:window-x="3829"
     inkscape:window-y="1630"
     inkscape:window-maximized="1"
     inkscape:current-layer="svg29" />
  <metadata
     id="metadata1">
    Created by potrace 1.10, written by Peter Selinger 2001-2011
  </metadata>
  <g
     transform="matrix(0.1,0,0,-0.1,-6,352.5)"
     fill="#000000"
     stroke="none"
     id="g29">
    <path
       d="m 2216,2675 c -9,-13 -27,-84 -41,-157 -55,-290 -57,-398 -11,-468 l 26,-40 v -247 c 0,-179 4,-255 13,-273 17,-34 62,-39 93,-9 l 24,23 v 575 c -1,572 -1,576 -22,598 -28,30 -62,29 -82,-2 z m 73,-14 c 14,-26 15,-1135 1,-1161 -12,-22 -50,-26 -68,-8 -9,9 -12,83 -12,270 v 258 l -27,43 c -26,40 -28,48 -26,147 2,106 51,408 73,450 13,25 46,26 59,1 z"
       id="path1" />
    <path
       d="m 2246,2623 c -25,-119 -57,-343 -59,-413 -2,-77 1,-89 26,-132 l 27,-47 v -261 c 0,-205 3,-261 13,-257 9,3 12,125 12,566 0,310 -3,565 -7,567 -3,2 -9,-8 -12,-23 z m -6,-375 c -1,-141 -2,-151 -16,-133 -13,17 -15,38 -10,125 6,101 14,160 22,160 2,0 4,-69 4,-152 z"
       id="path2" />
    <path
       d="m 839,2674 c -6,-8 -18,-14 -25,-14 -36,0 -44,-43 -60,-301 -7,-116 3,-154 52,-200 l 24,-22 v -319 -319 l 25,-24 c 30,-31 55,-32 83,-2 22,23 22,29 22,340 v 317 l 35,39 c 48,53 53,90 38,289 -10,128 -16,169 -29,183 -10,11 -22,19 -29,19 -6,0 -17,6 -23,13 -18,17 -99,18 -113,1 z m 39,-187 c -4,-235 -22,-238 -26,-5 -3,176 1,209 19,191 6,-6 8,-79 7,-186 z m 62,8 c 0,-158 -2,-185 -15,-185 -13,0 -15,26 -15,178 0,98 3,182 7,185 19,20 23,-9 23,-178 z m -114,78 c -18,-180 -23,-309 -15,-330 5,-13 22,-32 39,-41 l 30,-17 2,-340 c 2,-218 7,-340 13,-340 6,0 11,122 13,340 2,338 2,340 24,350 12,6 30,21 40,35 17,24 17,36 7,213 -7,103 -9,190 -5,194 17,17 25,-26 36,-198 11,-167 11,-188 -4,-217 -9,-17 -28,-39 -41,-48 l -25,-16 v -328 c 0,-285 -2,-331 -16,-344 -21,-22 -40,-20 -58,6 -14,19 -16,69 -16,345 v 323 l -24,15 c -13,8 -31,33 -40,53 -16,34 -16,52 -7,153 6,63 11,140 11,171 0,66 7,88 27,88 13,0 14,-11 9,-67 z m 134,-298 c 0,-12 -13,-34 -29,-49 -28,-27 -30,-27 -55,-10 -28,18 -46,44 -46,66 0,10 17,14 65,14 59,0 65,-2 65,-21 z"
       id="path3" />
    <path
       d="m 1510,2669 c -204,-26 -384,-205 -440,-438 -16,-67 -16,-242 -1,-301 42,-157 121,-283 226,-357 79,-56 147,-81 242,-89 142,-11 262,36 374,147 230,228 234,642 9,882 -116,124 -252,176 -410,156 z m 193,-40 c 130,-43 229,-134 297,-272 49,-102 69,-196 65,-307 -10,-270 -183,-492 -423,-541 -77,-16 -176,-2 -260,38 -89,42 -193,152 -241,255 -47,101 -61,163 -61,275 0,379 313,656 623,552 z"
       id="path4" />
    <path
       d="m 1473,2525 c -137,-38 -257,-172 -292,-325 -15,-63 -13,-196 3,-255 35,-131 122,-242 233,-297 57,-28 75,-31 151,-32 79,-1 94,2 160,33 223,105 315,424 190,662 -72,138 -182,215 -319,224 -49,3 -92,0 -126,-10 z m 243,-40 c 253,-124 315,-511 117,-726 -36,-38 -77,-70 -118,-90 -54,-27 -73,-31 -144,-31 -103,0 -169,29 -245,105 -141,141 -175,360 -85,551 43,93 159,194 246,216 64,16 169,4 229,-25 z"
       id="path6" />
  </g>
</svg>
